<mxfile host="app.diagrams.net" agent="Mozilla/5.0 (Windows NT 10.0; Win64; x64) AppleWebKit/537.36 (KHTML, like Gecko) Chrome/137.0.0.0 Safari/537.36" version="27.1.3">
  <diagram name="Page-1" id="uua_ncFQjjpvf3eVULz4">
    <mxGraphModel dx="1501" dy="904" grid="1" gridSize="10" guides="1" tooltips="1" connect="1" arrows="1" fold="1" page="1" pageScale="1" pageWidth="827" pageHeight="1169" math="0" shadow="0">
      <root>
        <mxCell id="0" />
        <mxCell id="1" parent="0" />
        <mxCell id="imrYNs7jlFh8do1GUZ2F-1" value="end" style="ellipse;whiteSpace=wrap;html=1;" vertex="1" parent="1">
          <mxGeometry x="400" y="620" width="120" height="80" as="geometry" />
        </mxCell>
        <mxCell id="imrYNs7jlFh8do1GUZ2F-7" value="" style="edgeStyle=orthogonalEdgeStyle;rounded=0;orthogonalLoop=1;jettySize=auto;html=1;" edge="1" parent="1" source="imrYNs7jlFh8do1GUZ2F-2" target="imrYNs7jlFh8do1GUZ2F-4">
          <mxGeometry relative="1" as="geometry" />
        </mxCell>
        <mxCell id="imrYNs7jlFh8do1GUZ2F-2" value="start" style="ellipse;whiteSpace=wrap;html=1;" vertex="1" parent="1">
          <mxGeometry x="400" y="60" width="120" height="80" as="geometry" />
        </mxCell>
        <mxCell id="imrYNs7jlFh8do1GUZ2F-3" value="PRINT (&quot;number is even&quot;,n)" style="shape=parallelogram;perimeter=parallelogramPerimeter;whiteSpace=wrap;html=1;fixedSize=1;" vertex="1" parent="1">
          <mxGeometry x="240" y="470" width="120" height="60" as="geometry" />
        </mxCell>
        <mxCell id="imrYNs7jlFh8do1GUZ2F-8" value="" style="edgeStyle=orthogonalEdgeStyle;rounded=0;orthogonalLoop=1;jettySize=auto;html=1;" edge="1" parent="1" source="imrYNs7jlFh8do1GUZ2F-4" target="imrYNs7jlFh8do1GUZ2F-6">
          <mxGeometry relative="1" as="geometry" />
        </mxCell>
        <mxCell id="imrYNs7jlFh8do1GUZ2F-4" value="INPUT (&quot;enter number&quot;) Num" style="shape=parallelogram;perimeter=parallelogramPerimeter;whiteSpace=wrap;html=1;fixedSize=1;" vertex="1" parent="1">
          <mxGeometry x="400" y="180" width="120" height="60" as="geometry" />
        </mxCell>
        <mxCell id="imrYNs7jlFh8do1GUZ2F-12" style="edgeStyle=orthogonalEdgeStyle;rounded=0;orthogonalLoop=1;jettySize=auto;html=1;entryX=1;entryY=0.5;entryDx=0;entryDy=0;" edge="1" parent="1" source="imrYNs7jlFh8do1GUZ2F-5" target="imrYNs7jlFh8do1GUZ2F-1">
          <mxGeometry relative="1" as="geometry" />
        </mxCell>
        <mxCell id="imrYNs7jlFh8do1GUZ2F-5" value="PRINT (&quot;number is odd&quot;,n)" style="shape=parallelogram;perimeter=parallelogramPerimeter;whiteSpace=wrap;html=1;fixedSize=1;" vertex="1" parent="1">
          <mxGeometry x="580" y="460" width="120" height="110" as="geometry" />
        </mxCell>
        <mxCell id="imrYNs7jlFh8do1GUZ2F-6" value="Num%2=0" style="rhombus;whiteSpace=wrap;html=1;" vertex="1" parent="1">
          <mxGeometry x="420" y="310" width="80" height="80" as="geometry" />
        </mxCell>
        <mxCell id="imrYNs7jlFh8do1GUZ2F-9" style="edgeStyle=orthogonalEdgeStyle;rounded=0;orthogonalLoop=1;jettySize=auto;html=1;entryX=0.675;entryY=0;entryDx=0;entryDy=0;entryPerimeter=0;" edge="1" parent="1" source="imrYNs7jlFh8do1GUZ2F-6" target="imrYNs7jlFh8do1GUZ2F-3">
          <mxGeometry relative="1" as="geometry" />
        </mxCell>
        <mxCell id="imrYNs7jlFh8do1GUZ2F-13" value="yes" style="edgeLabel;html=1;align=center;verticalAlign=middle;resizable=0;points=[];" vertex="1" connectable="0" parent="imrYNs7jlFh8do1GUZ2F-9">
          <mxGeometry x="-0.3276" y="6" relative="1" as="geometry">
            <mxPoint as="offset" />
          </mxGeometry>
        </mxCell>
        <mxCell id="imrYNs7jlFh8do1GUZ2F-10" style="edgeStyle=orthogonalEdgeStyle;rounded=0;orthogonalLoop=1;jettySize=auto;html=1;entryX=0.617;entryY=-0.009;entryDx=0;entryDy=0;entryPerimeter=0;" edge="1" parent="1" source="imrYNs7jlFh8do1GUZ2F-6" target="imrYNs7jlFh8do1GUZ2F-5">
          <mxGeometry relative="1" as="geometry" />
        </mxCell>
        <mxCell id="imrYNs7jlFh8do1GUZ2F-14" value="no" style="edgeLabel;html=1;align=center;verticalAlign=middle;resizable=0;points=[];" vertex="1" connectable="0" parent="imrYNs7jlFh8do1GUZ2F-10">
          <mxGeometry x="-0.5034" y="1" relative="1" as="geometry">
            <mxPoint as="offset" />
          </mxGeometry>
        </mxCell>
        <mxCell id="imrYNs7jlFh8do1GUZ2F-11" style="edgeStyle=orthogonalEdgeStyle;rounded=0;orthogonalLoop=1;jettySize=auto;html=1;entryX=0;entryY=0.75;entryDx=0;entryDy=0;entryPerimeter=0;" edge="1" parent="1" source="imrYNs7jlFh8do1GUZ2F-3" target="imrYNs7jlFh8do1GUZ2F-1">
          <mxGeometry relative="1" as="geometry" />
        </mxCell>
      </root>
    </mxGraphModel>
  </diagram>
</mxfile>
